<?xml version="1.0" standalone="no"?>
<svg
  version="1.0"
  xmlns="http://www.w3.org/2000/svg"
  width="48.000000pt"
  height="48.000000pt"
  viewBox="0 0 48.000000 48.000000"
  preserveAspectRatio="xMidYMid meet"
>
  <style>
    path {
      fill: #000;
    }
    @media (prefers-color-scheme: dark) {
      path {
        fill: #fff;
      }
    }
  </style>
  <g
    transform="translate(0.000000,48.000000) scale(0.100000,-0.100000)"
    stroke="none"
  >
    <path
      d="M148 283 l-3 -138 -25 0 c-18 0 -26 6 -28 23 -3 19 -9 22 -49 22
l-46 0 6 -38 c9 -57 54 -92 117 -92 41 0 56 5 82 29 33 29 33 30 38 143 l5
113 45 -3 c65 -4 90 -31 90 -97 0 -41 -5 -56 -23 -73 -13 -12 -33 -22 -45 -22
-15 0 -28 -12 -42 -40 l-20 -40 58 0 c45 0 67 6 93 23 42 28 79 98 79 152 0
54 -37 124 -79 152 -30 20 -47 23 -142 23 l-108 0 -3 -137z"
    />
  </g>
</svg>
